# xmcd CD database file
#
# Track frame offsets:
#	150
#	24680
#	28845
#	46360
#	60970
#	78190
#	90645
#	114842
#	130690
#	171340
#	193715
#	217190
#
# Disc length: 3946 seconds
#
# Revision: 1
# Processed by: cddbd v1.4PL0 Copyright (c) Steve Scherf et al.
# Submitted via: CDex 1.51
#
DISCID=9c0f680c
DTITLE=Mils - .Mils
DYEAR=1900
DGENRE=
TTITLE0=0524
TTITLE1=0053
TTITLE2=0351
TTITLE3=0312
TTITLE4=0347
TTITLE5=0243
TTITLE6=0520
TTITLE7=0329
TTITLE8=0900
TTITLE9=0456
TTITLE10=0510
TTITLE11=0300
EXTD=
EXTT0=
EXTT1=
EXTT2=
EXTT3=
EXTT4=
EXTT5=
EXTT6=
EXTT7=
EXTT8=
EXTT9=
EXTT10=
EXTT11=
PLAYORDER=
